<svg xmlns="http://www.w3.org/2000/svg" viewBox="0 0 111.74 111.41">
  <defs>
    <linearGradient id="a" x1="89.77" y1="10.51" x2="153.2" y2="89.13" gradientTransform="translate(-67.72 -5.82)" gradientUnits="userSpaceOnUse">
      <stop offset="0" stop-color="#5a9fd4"/>
      <stop offset="1" stop-color="#306998"/>
    </linearGradient>
    <linearGradient id="b" x1="142.5" y1="76.13" x2="120.86" y2="54.92" gradientTransform="translate(-67.72 -5.82)" gradientUnits="userSpaceOnUse">
      <stop offset="0" stop-color="#ffd43b"/>
      <stop offset="1" stop-color="#ffe873"/>
    </linearGradient>
  </defs>
  <path d="M55.63 0c-4.58.02-8.96.41-12.81 1.09-11.35 2-13.41 6.2-13.41 13.94v10.22h26.81v3.41H18.77c-7.79 0-14.62 4.68-16.75 13.59-2.46 10.21-2.57 16.59 0 27.25 1.91 7.94 6.46 13.59 14.25 13.59h9.22V70.62c0-8.85 7.66-16.66 16.75-16.66h26.78c7.45 0 13.41-6.14 13.41-13.62V15.03c0-7.27-6.13-12.73-13.41-13.94C64.95.3 60.21-.02 55.63 0zm-14.5 8.22c2.77 0 5.03 2.3 5.03 5.12 0 2.81-2.26 5.09-5.03 5.09-2.78 0-5.03-2.28-5.03-5.09 0-2.82 2.25-5.12 5.03-5.12z" fill="url(#a)"/>
  <path d="M85.4 28.66v12.19c0 9.45-8.01 17.41-16.75 17.41H41.87c-7.34 0-13.41 6.28-13.41 13.62v25.53c0 7.27 6.32 11.54 13.41 13.62 8.48 2.49 16.62 2.94 26.78 0 6.75-1.95 13.41-5.88 13.41-13.62V86.19H55.28v-3.41h40.19c7.79 0 10.7-5.44 13.41-13.59 2.8-8.4 2.68-16.48 0-27.25-1.93-7.76-5.6-13.59-13.41-13.59H85.4zM70.9 93.37c2.78 0 5.03 2.28 5.03 5.09 0 2.82-2.25 5.12-5.03 5.12-2.77 0-5.03-2.3-5.03-5.12 0-2.81 2.26-5.09 5.03-5.09z" fill="url(#b)"/>
</svg>